<svg width="151" height="36" viewBox="0 0 151 36" fill="none" xmlns="http://www.w3.org/2000/svg">
<path d="M38.325 1.02396C37.8712 1.45744 37.7805 1.7103 37.7805 2.37858C37.7805 3.13716 37.7442 3.20941 37.3268 3.20941C36.9638 3.20941 36.873 3.29972 36.873 3.66095C36.873 4.02218 36.9638 4.11249 37.3268 4.11249H37.7805V6.27988V8.44727H38.4157H39.0509V6.27988V4.11249H39.5954C40.0491 4.11249 40.1398 4.04024 40.1398 3.66095C40.1398 3.28165 40.0491 3.20941 39.5954 3.20941C39.0872 3.20941 39.0509 3.17329 39.0509 2.52307C39.0509 1.7103 39.305 1.40325 40.0128 1.40325C40.4484 1.40325 40.521 1.331 40.4665 0.987835C40.4302 0.662726 40.285 0.572418 39.6317 0.536295C38.9783 0.48211 38.7787 0.554357 38.325 1.02396Z" fill="#B29ADA"/>
<path d="M48.7607 0.71691C48.2344 1.0059 48.0529 1.38519 47.944 2.30633C47.8714 2.97461 47.7807 3.13716 47.454 3.17328C46.8188 3.26359 46.8733 4.11249 47.4903 4.11249H47.944V6.27988V8.44727H48.4885H49.033V6.27988V4.11249H49.6682C50.2126 4.11249 50.3034 4.0583 50.3034 3.67901C50.3034 3.29972 50.1945 3.22747 49.7226 3.17328C49.2326 3.13716 49.1056 3.02879 49.0693 2.63144C48.9785 1.87285 49.3233 1.40325 49.9404 1.40325C50.3941 1.40325 50.4849 1.331 50.4849 0.951711C50.4849 0.554356 50.4123 0.500171 49.8134 0.500171C49.4322 0.500171 48.9604 0.608541 48.7607 0.71691Z" fill="#B29ADA"/>
<path d="M10.0861 0.933352C9.86829 1.49326 10.0861 1.85449 10.6487 1.85449C11.1387 1.85449 11.1932 1.80031 11.1932 1.31264C11.1932 0.861105 11.1206 0.770797 10.685 0.716613C10.3765 0.68049 10.1587 0.752736 10.0861 0.933352Z" fill="#B29ADA"/>
<path d="M64.5315 1.1142C63.7692 1.45737 63.1885 2.23401 63.1885 2.95648C63.1885 3.73313 63.8055 4.43753 65.0397 5.08774C66.3101 5.77408 66.6368 6.08113 66.6368 6.56879C66.6368 7.45381 65.1304 7.8331 63.8237 7.29126L63.1885 7.02033V7.63443C63.1885 8.19434 63.2429 8.26658 63.8781 8.39301C64.2411 8.46526 64.9489 8.51944 65.4208 8.50138C67.0905 8.46526 67.9072 7.79698 67.9072 6.49655C67.9072 5.53928 67.4534 5.0155 65.9108 4.22079C64.477 3.4622 64.1685 2.93842 64.7493 2.27014C65.0578 1.94503 65.2393 1.90891 66.419 1.98115C67.6894 2.07146 67.7257 2.0534 67.7257 1.63798C67.7257 1.349 67.5805 1.15032 67.2538 1.04195C66.6005 0.789088 65.203 0.825211 64.5315 1.1142Z" fill="#B29ADA"/>
<path d="M0.575195 4.74464V8.44727H1.11966H1.66412V5.52129C1.66412 3.91381 1.71857 2.66756 1.79117 2.73981C1.86376 2.79399 2.42638 4.09443 3.04343 5.6116C4.02347 7.99573 4.22311 8.35696 4.60423 8.41114C5.02166 8.46533 5.13055 8.26665 6.21948 5.52129L7.381 2.59531L7.43545 5.52129L7.47175 8.44727H8.01621H8.56068V4.74464V1.04202H7.76213H6.96358L5.83835 3.84156C5.22129 5.3768 4.69498 6.64111 4.65868 6.64111C4.62238 6.64111 4.09607 5.3768 3.47901 3.84156L2.35378 1.04202H1.46449H0.575195V4.74464Z" fill="#B29ADA"/>
<path d="M42.0099 1.71016C41.7014 1.76434 41.5925 1.92689 41.5562 2.45068C41.5199 2.99253 41.411 3.13702 41.1025 3.17314C40.4672 3.26345 40.5217 4.11234 41.1388 4.11234H41.5925V5.97269C41.5925 7.99558 41.7195 8.28457 42.6814 8.50131C43.4255 8.68192 43.9518 8.46519 43.9518 7.97752C43.9518 7.61629 43.8611 7.54404 43.4255 7.54404C42.7721 7.54404 42.6814 7.32731 42.6814 5.53921V4.11234H43.3166C43.8611 4.11234 43.9518 4.05816 43.9518 3.67887C43.9518 3.29957 43.8429 3.22733 43.3711 3.17314C42.8084 3.11896 42.7721 3.06477 42.7177 2.34231C42.6814 1.92689 42.6088 1.60179 42.5362 1.60179C42.4636 1.61985 42.2277 1.67403 42.0099 1.71016Z" fill="#B29ADA"/>
<path d="M69.4495 1.74639C69.2136 1.83669 69.0502 2.10762 68.9958 2.50497C68.9232 2.97457 68.8143 3.13713 68.5058 3.17325C67.8706 3.26356 67.925 4.11245 68.5421 4.11245C68.9958 4.11245 68.9958 4.11245 68.9958 5.88249C68.9958 7.12874 69.0684 7.76089 69.268 8.01375C69.7762 8.77234 71.5366 8.68203 71.5366 7.92345C71.5366 7.65252 71.3914 7.56221 70.9559 7.50803L70.357 7.45385L70.3025 5.79218L70.2481 4.13051L70.847 4.07633C71.3007 4.04021 71.464 3.93184 71.5003 3.60673C71.5548 3.26356 71.4822 3.20937 70.9196 3.20937C70.2662 3.20937 70.2662 3.20937 70.2662 2.3966C70.2662 1.54771 70.1573 1.47546 69.4495 1.74639Z" fill="#B29ADA"/>
<path d="M82.246 1.74602C81.883 1.83633 81.7741 1.99888 81.7378 2.54073C81.6834 3.06452 81.6108 3.20901 81.3204 3.20901C81.0663 3.20901 80.9756 3.33544 80.9756 3.66055C80.9756 3.98566 81.0663 4.11209 81.3204 4.11209C81.6289 4.11209 81.6652 4.2927 81.7378 5.90018C81.7741 7.09225 81.883 7.77859 82.0645 7.99533C82.4275 8.4288 83.1353 8.6636 83.7342 8.53717C84.1153 8.44687 84.2424 8.32043 84.2424 7.97726C84.2424 7.61603 84.1516 7.54379 83.7161 7.54379C83.0627 7.54379 82.972 7.32705 82.972 5.53895V4.11209H83.6072C84.1516 4.11209 84.2424 4.0579 84.2424 3.67861C84.2424 3.29932 84.1335 3.22707 83.6616 3.17289C83.099 3.1187 83.0627 3.06452 83.0083 2.34205C82.972 1.92664 82.8994 1.58347 82.8268 1.60153C82.7542 1.61959 82.5001 1.67377 82.246 1.74602Z" fill="#B29ADA"/>
<path d="M13.6423 3.35388C12.8982 3.75124 12.1904 4.97943 12.1904 5.88251C12.1904 7.68866 13.8601 8.91685 15.6387 8.44725C16.2921 8.26663 16.3647 8.19439 16.3647 7.68866C16.3647 7.23712 16.3102 7.16488 16.1469 7.32743C16.0198 7.45386 15.5661 7.54417 15.1487 7.54417C14.0235 7.54417 13.4608 6.9662 13.4608 5.82832C13.4608 5.14198 13.5516 4.88912 13.9872 4.45564C14.5498 3.89573 15.3483 3.7693 16.0198 4.11247C16.3284 4.27502 16.3647 4.2389 16.3647 3.7693C16.3647 3.46225 16.2558 3.20939 16.0743 3.13715C15.5117 2.92041 14.2594 3.02878 13.6423 3.35388Z" fill="#B29ADA"/>
<path d="M18.9972 3.4984C18.5616 3.968 18.5434 3.968 18.5434 3.58871C18.5434 3.28166 18.4346 3.20941 17.9082 3.20941H17.2549L17.3093 5.77416L17.3638 8.35696L17.9627 8.41115L18.5434 8.46533V6.76754C18.5434 5.32262 18.5979 4.99751 18.9246 4.58209C19.1787 4.27505 19.469 4.11249 19.832 4.11249C20.3039 4.11249 20.3583 4.05831 20.3583 3.57064C20.3583 3.1191 20.2857 3.0288 19.9046 3.0288C19.6324 3.0288 19.2513 3.22747 18.9972 3.4984Z" fill="#B29ADA"/>
<path d="M22.0455 3.28101C20.9747 3.76868 20.3577 5.30391 20.7207 6.6224C21.2288 8.53693 23.6971 9.20521 25.2034 7.83253C26.3468 6.78496 26.3831 4.78012 25.276 3.69643C24.8223 3.22683 24.5682 3.13652 23.6789 3.08234C23.0256 3.04621 22.4085 3.11846 22.0455 3.28101ZM24.3141 4.29246C24.8041 4.744 24.9675 5.37616 24.8404 6.22505C24.6771 7.14619 24.2597 7.54354 23.4067 7.54354C22.2633 7.54354 21.6281 6.6224 21.8822 5.28585C22.1181 4.11184 23.4974 3.53387 24.3141 4.29246Z" fill="#B29ADA"/>
<path d="M27.635 3.35359C26.2556 4.03993 26.5279 5.3223 28.252 6.18926C29.4498 6.78529 29.595 7.00203 29.1413 7.45357C28.8328 7.76061 28.0705 7.76061 27.1086 7.45357C26.7275 7.32714 26.6912 7.36326 26.7457 7.83286C26.8001 8.2844 26.909 8.37471 27.5624 8.50114C29.0143 8.77206 30.5206 8.06766 30.5206 7.07427C30.5206 6.31569 30.1939 5.9364 29.105 5.41261C27.3809 4.59984 27.7257 3.69676 29.6132 4.00381C30.2847 4.11218 30.3391 4.09411 30.3391 3.6787C30.3391 3.4439 30.2121 3.19104 30.0487 3.13685C29.5043 2.92011 28.252 3.02848 27.635 3.35359Z" fill="#B29ADA"/>
<path d="M32.5346 3.35386C31.2097 4.02214 30.7378 5.57544 31.3912 7.05649C31.8449 8.086 32.6071 8.51947 33.9139 8.50141C35.5836 8.48335 36.5091 7.48996 36.5091 5.73799C36.5091 4.52787 36.2551 3.98602 35.4384 3.44417C34.6761 2.93845 33.4238 2.88426 32.5346 3.35386ZM34.8939 4.40143C35.4384 4.9794 35.4928 6.31596 35.0028 7.05649C34.7306 7.4719 34.5491 7.54415 33.8776 7.54415C33.2424 7.54415 33.0246 7.45384 32.716 7.07455C32.0445 6.22565 32.2986 4.54593 33.1335 4.14857C33.805 3.82346 34.422 3.91377 34.8939 4.40143Z" fill="#B29ADA"/>
<path d="M51.9546 3.33578C51.0471 3.78732 50.666 4.52784 50.666 5.90052C50.666 6.98422 50.7023 7.07452 51.3557 7.72474C52.1361 8.50139 53.0254 8.73619 54.0961 8.4472C55.8566 7.9776 56.6188 5.79215 55.6025 4.0763C55.0217 3.08291 53.225 2.72168 51.9546 3.33578ZM54.0235 4.04018C54.4591 4.20273 54.8402 5.08775 54.8402 5.88246C54.8402 6.87585 54.2776 7.54412 53.4609 7.54412C52.5716 7.54412 52.1724 7.29126 51.9364 6.53268C51.392 4.9252 52.5898 3.49833 54.0235 4.04018Z" fill="#B29ADA"/>
<path d="M58.7245 3.48033C58.1801 4.02218 58.1075 4.04024 58.1075 3.57064C58.1075 3.28165 57.9804 3.20941 57.563 3.20941H57.0186V5.82834V8.44727H57.563H58.1075V7.30939C58.1075 4.9975 58.5249 4.11249 59.5594 4.11249C60.0494 4.11249 60.1039 4.0583 60.1039 3.57064C60.1039 3.1191 60.0313 3.02879 59.6501 3.02879C59.3961 3.02879 58.9786 3.22747 58.7245 3.48033Z" fill="#B29ADA"/>
<path d="M72.989 3.26348C72.6986 3.40797 72.5172 3.6789 72.4809 3.98594L72.4264 4.49167L72.9709 4.22075C73.8239 3.76921 74.7313 3.84145 75.0943 4.3833C75.2576 4.63616 75.3484 4.88902 75.3121 4.94321C75.2576 4.97933 74.7313 5.10576 74.1506 5.19607C72.9164 5.39475 72.2449 5.82823 72.0634 6.51457C71.8457 7.30927 72.1179 7.95949 72.8257 8.32072C73.5153 8.68195 74.0961 8.60971 74.8584 8.06786C75.3484 7.70663 75.3484 7.70663 75.3484 8.08592C75.3484 8.37491 75.4754 8.44715 75.8928 8.44715H76.4373V6.2617C76.4373 4.09431 76.4373 4.07625 75.911 3.55247C75.4573 3.10093 75.2395 3.02868 74.4046 3.02868C73.8783 3.02868 73.2431 3.13705 72.989 3.26348ZM75.3484 6.1714C75.3484 7.18284 74.4046 7.92337 73.5879 7.56214C73.0072 7.29121 73.0072 6.33395 73.5879 6.09915C74.2594 5.82823 75.3484 5.88241 75.3484 6.1714Z" fill="#B29ADA"/>
<path d="M79.0698 3.49839C78.6343 3.96799 78.6161 3.96799 78.6161 3.5887C78.6161 3.28165 78.5072 3.20941 77.9809 3.20941H77.3457V5.82834V8.44727H77.9809H78.6161V6.74948C78.6161 5.32261 78.6706 4.9975 78.9972 4.58209C79.2513 4.27504 79.5417 4.11249 79.9047 4.11249C80.3766 4.11249 80.431 4.0583 80.431 3.57064C80.431 3.1191 80.3584 3.02879 79.9773 3.02879C79.705 3.02879 79.3239 3.22747 79.0698 3.49839Z" fill="#B29ADA"/>
<path d="M92.8615 3.24518C92.6619 3.35355 92.4078 3.58835 92.2808 3.73284C92.0811 3.98571 92.063 3.96765 92.0448 3.60641C92.0448 3.28131 91.9541 3.20906 91.4096 3.20906H90.7744V7.00199V10.7949H91.4096H92.0448V9.33193C92.0448 8.08569 92.0811 7.88701 92.2989 8.06762C93.1156 8.75396 94.6583 8.60947 95.3116 7.77864C96.7091 6.0086 95.8379 3.01038 93.9323 3.02844C93.533 3.02844 93.0612 3.13681 92.8615 3.24518ZM94.3497 4.40112C94.749 4.81654 94.8035 4.97909 94.7309 5.84605C94.622 7.07424 94.2408 7.54384 93.2971 7.54384C92.3897 7.54384 92.0448 7.05618 92.0448 5.7738C92.0448 4.99716 92.1356 4.72623 92.4986 4.38306C93.0612 3.80509 93.7508 3.80509 94.3497 4.40112Z" fill="#B29ADA"/>
<path d="M97.363 3.37173C96.1289 4.13031 96.4193 5.3585 97.9982 6.09903C99.0145 6.58669 99.3231 6.9118 99.1779 7.29109C99.0145 7.70651 97.8893 7.79681 97.1815 7.47171L96.5645 7.18272L96.6189 7.76069C96.6733 8.28448 96.7459 8.35672 97.4356 8.50122C98.8875 8.77214 100.394 8.03161 100.394 7.03823C100.394 6.31576 100.049 5.91841 98.9782 5.41269C97.3086 4.61798 97.5808 3.69684 99.4138 3.98582C100.031 4.09419 100.049 4.07613 99.9946 3.60653C99.9401 3.15499 99.8857 3.11887 98.9419 3.06468C98.1978 3.02856 97.7986 3.11887 97.363 3.37173Z" fill="#B29ADA"/>
<path d="M10.0117 5.8464V8.46533L10.6106 8.41115L11.1914 8.35696L11.2458 5.77416L11.3003 3.20941H10.6469H10.0117V5.8464Z" fill="#B29ADA"/>
<path d="M85.1494 5.3407C85.1494 7.74289 85.2946 8.10412 86.3291 8.44729C87.055 8.68209 87.6177 8.55566 88.1984 8.03188L88.5977 7.67064V8.04994C88.5977 8.37505 88.7066 8.44729 89.2329 8.44729H89.8681V5.82836V3.20943H89.2329H88.5977V4.97947C88.5977 7.07461 88.3799 7.54421 87.418 7.54421C86.4561 7.54421 86.2383 7.07461 86.2383 4.97947V3.20943H85.6939H85.1494V5.3407Z" fill="#B29ADA"/>
<path d="M63.1886 20.1875V23.9985L62.517 23.2761C61.6641 22.4091 60.6296 22.084 59.0506 22.2466C56.2557 22.4994 54.3864 24.5223 53.9327 27.7915C53.4608 31.0967 54.5679 33.8602 56.7639 34.9258C58.7421 35.8831 61.3374 35.5038 62.5352 34.0769C62.7893 33.7879 63.0252 33.5531 63.0797 33.5531C63.1341 33.5531 63.1886 33.9143 63.1886 34.3659V35.1787H65.0942H66.9998V25.7866V16.3946H65.0942H63.1886V20.1875ZM62.3537 25.7686C63.37 26.7439 63.6604 28.5681 63.0978 30.4285C62.8074 31.4218 61.9181 32.3791 61.1014 32.5778C59.8129 32.9029 58.3065 31.9637 57.9254 30.591C57.6169 29.4531 57.7621 27.4844 58.2158 26.5994C58.7965 25.4976 59.6132 25.01 60.7929 25.1003C61.5733 25.1725 61.8637 25.299 62.3537 25.7686Z" fill="#B29ADA"/>
<path d="M137.417 25.7861V35.1781H139.323H141.228V34.4556C141.228 34.0583 141.265 33.7332 141.319 33.7332C141.373 33.7332 141.7 34.0222 142.045 34.3653C143.315 35.6116 145.548 35.8283 147.526 34.8891C148.669 34.3473 149.268 33.6609 150.012 32.1076C150.557 30.9698 150.575 30.8433 150.575 28.4953C150.575 26.3279 150.52 25.9486 150.157 25.1539C149.05 22.7517 146.655 21.6861 144.059 22.4266C143.297 22.6614 142.807 22.9504 142.208 23.5464C141.755 23.9799 141.355 24.3412 141.319 24.3412C141.265 24.3412 141.228 22.5531 141.228 20.3676V16.3941H139.323H137.417V25.7861ZM145.693 25.6235C146.51 26.3821 146.745 27.0323 146.764 28.5856C146.764 30.9517 145.802 32.4147 144.114 32.5953C142.281 32.7759 141.228 31.4394 141.228 28.9469C141.228 27.2129 141.682 26.1293 142.68 25.461C143.533 24.883 144.985 24.9733 145.693 25.6235Z" fill="#B29ADA"/>
<path d="M0.756836 26.2377V35.1782H2.66246H4.56809L4.60439 31.6923L4.65883 28.2245L7.61709 28.1703L10.5572 28.1342V26.599V25.0637H7.56264H4.56809V22.806V20.5483H7.74413H10.9202V18.9228V17.2973H5.83851H0.756836V26.2377Z" fill="#B29ADA"/>
<path d="M106.746 26.2377V35.1782H108.742H110.739V31.4756V27.773L114.514 27.8091L118.271 27.8633L118.325 31.5117L118.361 35.1782H120.267H122.173V26.2377V17.2973H120.267H118.361V20.9096V24.5219H114.55H110.739L110.703 20.9457L110.648 17.3876L108.706 17.3334L106.746 17.2792V26.2377Z" fill="#B29ADA"/>
<path d="M16.4187 22.4448C14.0956 23.095 12.6256 24.4496 11.9904 26.5448C11.1918 29.1095 11.7726 32.0355 13.3878 33.6069C15.366 35.5756 19.141 36.0813 21.9541 34.7809C23.1519 34.221 24.4223 32.8663 24.9123 31.6201C25.3842 30.41 25.4931 27.6646 25.112 26.4003C24.6038 24.7206 23.17 23.2395 21.4096 22.6074C20.2662 22.21 17.5802 22.1197 16.4187 22.4448ZM19.994 25.3889C20.4114 25.5875 20.7744 25.9849 21.0466 26.5087C21.4096 27.2311 21.464 27.5382 21.4096 29.0734C21.3551 30.9338 21.1555 31.4034 20.1392 32.1619C18.9051 33.0831 16.7091 32.5774 16.0012 31.2227C14.9123 29.0915 15.5657 26.2558 17.3624 25.2805C17.9069 24.9734 19.2862 25.0276 19.994 25.3889Z" fill="#B29ADA"/>
<path d="M46.8186 22.4448C46.2923 22.6254 45.6752 23.0228 45.1489 23.5285C44.7133 23.98 44.2959 24.3413 44.2414 24.3413C44.187 24.3413 44.1325 23.9259 44.1325 23.4382V22.5351H42.2269H40.3213V28.8567V35.1782H42.2269H44.1325V31.2408C44.1325 27.773 44.187 27.2311 44.4955 26.5629C45.403 24.54 48.089 24.6122 48.6697 26.6532C48.7605 27.0144 48.8512 29.0915 48.8512 31.2408V35.1782H50.775H52.6806L52.6262 30.2474L52.5717 25.3166L52.0273 24.2329C51.6099 23.4201 51.2832 23.0589 50.6843 22.7338C49.7042 22.1919 48.0164 22.0655 46.8186 22.4448Z" fill="#B29ADA"/>
<path d="M72.8082 22.4088C70.8481 22.9506 69.2147 24.5762 68.6158 26.5449C68.035 28.4413 68.1621 30.7352 68.9606 32.3426C69.9044 34.2391 71.4107 35.1783 73.9153 35.4492C75.222 35.5937 77.5632 35.3047 78.6521 34.8713L79.3418 34.6003V33.2999V31.9995L78.035 32.4329C76.3472 32.9929 74.3327 32.9387 73.3163 32.3246C72.6448 31.9092 72.0822 30.988 72.0822 30.3197C72.0822 29.9404 72.1367 29.9404 76.2746 29.9404H80.4851L80.3762 28.1704C80.2673 26.1114 79.9225 25.0096 79.0514 24.0163C78.1258 22.9326 76.7646 22.3365 75.0405 22.2462C74.2056 22.2101 73.28 22.2643 72.8082 22.4088ZM75.712 24.9735C76.329 25.2986 76.7465 25.985 76.8191 26.87L76.8917 27.5021L74.496 27.5563C72.1548 27.5924 72.0822 27.5924 72.0822 27.2312C72.0822 26.5991 72.79 25.4251 73.4071 25.0638C74.0967 24.6303 74.986 24.5942 75.712 24.9735Z" fill="#B29ADA"/>
<path d="M94.8582 22.3545C92.4081 22.8602 91.1377 24.1787 91.1377 26.2378C91.1377 28.2245 92.0088 29.1095 95.0215 30.1752C96.7275 30.7712 97.1268 31.0783 97.1268 31.7646C97.1268 32.5774 96.4372 32.9205 94.7856 32.9025C93.733 32.9025 93.1341 32.7941 92.2811 32.4329L91.1377 31.9633V33.4624V34.9434L92.2811 35.1963C93.7874 35.5395 96.419 35.5033 97.6713 35.124C98.8509 34.7809 100.14 33.7514 100.502 32.8844C100.648 32.5593 100.757 31.8368 100.757 31.2589C100.757 29.5069 99.9399 28.5858 97.5805 27.7007C96.8909 27.4298 96.0742 27.1228 95.8019 27.0144C95.1304 26.7615 94.6949 26.0933 94.8582 25.6056C95.0034 25.1179 95.9653 24.7025 96.8909 24.7025C97.5442 24.7025 98.9961 25.0276 99.7221 25.3347C100.012 25.4611 100.049 25.3527 99.9943 24.0523L99.9399 22.6254L98.9417 22.4087C97.7802 22.1739 95.9108 22.1558 94.8582 22.3545Z" fill="#B29ADA"/>
<path d="M87.5986 22.5712C86.9815 22.9144 86.2737 23.6369 86.0559 24.1787C85.7111 25.0096 85.5114 24.7928 85.5114 23.6188V22.5351H83.6058H81.7002V28.8567V35.1782H83.6058H85.5114V31.873C85.5114 27.9536 85.7111 27.0325 86.7274 26.1474C87.3626 25.5875 87.4352 25.5695 88.7238 25.6417L90.0487 25.6959V24.0342V22.3545H89.0142C88.4334 22.3545 87.7982 22.4629 87.5986 22.5712Z" fill="#B29ADA"/>
<path d="M26.5638 27.267C26.6364 31.2406 26.709 32.1617 26.9812 32.8842C28.1065 35.9185 32.317 36.4242 34.4948 33.7872L35.0575 33.1009V34.1485V35.178H36.9631H38.8687V28.8564V22.5349H36.9631H35.0575V26.5987C35.0575 30.2833 35.0212 30.7348 34.6945 31.367C33.787 33.1551 31.1555 32.9925 30.5928 31.1141C30.4477 30.6626 30.3569 28.9648 30.3569 26.4542L30.3388 22.5349H28.415H26.4912L26.5638 27.267Z" fill="#B29ADA"/>
<path d="M123.679 27.1768C123.769 32.4327 123.915 33.2274 124.985 34.3111C125.766 35.1239 126.655 35.449 128.161 35.4309C129.595 35.4129 130.557 34.9794 131.501 33.8957L132.154 33.119V34.1486V35.1781H134.06H135.965V28.8565V22.535H134.06H132.154V26.653C132.154 30.2834 132.118 30.8252 131.827 31.3671C130.974 32.9565 128.688 33.0468 127.853 31.5116C127.581 31.0239 127.526 30.3376 127.472 26.7252L127.399 22.535H125.494H123.588L123.679 27.1768Z" fill="#B29ADA"/>
</svg>
