<svg width="147" height="44" viewBox="0 0 147 44" fill="none" xmlns="http://www.w3.org/2000/svg">
<g clip-path="url(#clip0_7577_1731)">
<mask id="mask0_7577_1731" style="mask-type:luminance" maskUnits="userSpaceOnUse" x="0" y="0" width="147" height="44">
<path d="M146.943 0H0.943359V44H146.943V0Z" fill="white"/>
</mask>
<g mask="url(#mask0_7577_1731)">
<path d="M35.1182 32.9323V14.3011H39.1621V16.493H39.8027C40.1764 15.838 40.777 15.2585 41.6045 14.7546C42.432 14.2508 43.5531 13.9988 44.9678 13.9988C46.436 13.9988 47.6104 14.2886 48.4912 14.868C49.3989 15.4223 50.0795 16.1403 50.5332 17.0221H51.1739C51.6276 16.1654 52.2817 15.4474 53.1358 14.868C54.0167 14.2886 55.2579 13.9988 56.8594 13.9988C58.1407 13.9988 59.2751 14.2508 60.2628 14.7546C61.2505 15.2333 62.0378 15.9639 62.6251 16.9465C63.2124 17.9038 63.5059 19.1006 63.5059 20.5367V32.9323H59.3819V20.839C59.3819 19.7053 59.0483 18.8361 58.3809 18.2314C57.7403 17.6015 56.8194 17.2866 55.6182 17.2866C54.337 17.2866 53.3092 17.6771 52.5352 18.4582C51.7612 19.2392 51.3741 20.3603 51.3741 21.8216V32.9323H47.25V20.839C47.25 19.7053 46.9164 18.8361 46.2491 18.2314C45.6084 17.6015 44.6875 17.2866 43.4864 17.2866C42.2051 17.2866 41.1774 17.6771 40.4033 18.4582C39.6293 19.2392 39.2422 20.3603 39.2422 21.8216V32.9323H35.1182ZM78.4975 33.4614C76.4955 33.4614 74.7471 33.0709 73.2523 32.2898C71.7576 31.4837 70.583 30.3625 69.7289 28.9264C68.9014 27.4651 68.4877 25.7772 68.4877 23.8623V23.4088C68.4877 21.4689 68.9014 19.7809 69.7289 18.3448C70.5564 16.8835 71.7041 15.7624 73.1723 14.9814C74.667 14.1752 76.3887 13.772 78.3373 13.772C80.2325 13.772 81.8875 14.1752 83.3022 14.9814C84.7436 15.7624 85.8647 16.8584 86.6655 18.2692C87.4662 19.68 87.8666 21.3303 87.8666 23.2199V24.6938H72.6918C72.7451 26.3313 73.3191 27.6415 74.4135 28.6241C75.5346 29.5814 76.9226 30.0601 78.5775 30.0601C80.1258 30.0601 81.2869 29.7326 82.061 29.0776C82.8617 28.4225 83.4756 27.6667 83.9028 26.8101L87.3061 28.4729C86.9324 29.1784 86.3852 29.9215 85.6645 30.7026C84.9705 31.4837 84.0496 32.1387 82.9018 32.6677C81.7539 33.1968 80.2859 33.4614 78.4975 33.4614ZM72.7318 21.7082H83.6625C83.5557 20.2974 83.0219 19.2014 82.061 18.4204C81.1 17.6142 79.8455 17.2111 78.2973 17.2111C76.749 17.2111 75.4812 17.6142 74.4936 18.4204C73.5326 19.2014 72.9453 20.2974 72.7318 21.7082ZM94.7584 32.9323L91.3951 14.3011H95.5191L98.0016 30.3247H98.6422L102.086 14.3011H108.772L112.175 30.3247H112.816L115.298 14.3011H119.423L116.059 32.9323H109.132L105.729 16.9465H105.088L101.685 32.9323H94.7584ZM131.714 32.9323C130.513 32.9323 129.552 32.5922 128.831 31.9119C128.137 31.2317 127.79 30.3247 127.79 29.1909V17.589H122.345V14.3011H127.79V8.14111H131.914V14.3011H137.8V17.589H131.914V28.5107C131.914 29.2665 132.288 29.6444 133.036 29.6444H137.16V32.9323H131.714Z" fill="white"/>
<mask id="mask1_7577_1731" style="mask-type:luminance" maskUnits="userSpaceOnUse" x="-2" y="1" width="41" height="39">
<path d="M38.3671 1.75195H-1.63086V39.5045H38.3671V1.75195Z" fill="white"/>
</mask>
<g mask="url(#mask1_7577_1731)">
<path d="M16.3092 15.8823L10.1191 17.5156L10.1417 24.8554L16.3375 23.2207L16.3092 15.8823Z" stroke="#E6E6E6" stroke-width="1.7482" stroke-linejoin="round"/>
<path d="M16.3738 23.2354L10.1836 24.8686L10.2061 32.2084L16.4019 30.5739L16.3738 23.2354Z" stroke="#E2E2E2" stroke-width="1.7482" stroke-linejoin="round"/>
<path d="M10.1826 24.92L16.3812 23.2832L22.2507 26.1031L16.0532 27.7402L10.1826 24.92Z" fill="#190B14" stroke="#E2E2E2" stroke-width="1.7482" stroke-linejoin="round"/>
<path d="M22.234 26.0576L16.0439 27.6909L16.0664 35.0308L22.2623 33.3962L22.234 26.0576Z" fill="#190B14" stroke="#E2E2E2" stroke-width="1.7482" stroke-linejoin="round"/>
<path d="M10.2153 32.2294L10.1875 24.9238L15.9967 27.7308L16.0253 35.0359L10.2153 32.2294Z" fill="#71335C" stroke="#E2E2E2" stroke-width="1.7482" stroke-linejoin="round"/>
<path d="M22.157 18.7046L15.9668 20.3379L15.9894 27.6776L22.1853 26.043L22.157 18.7046Z" stroke="#E2E2E2" stroke-width="1.7482" stroke-linejoin="round"/>
<path d="M15.9658 20.3892L22.1645 18.7524L28.0339 21.5725L21.8364 23.2095L15.9658 20.3892Z" fill="#135562" stroke="#E2E2E2" stroke-width="1.7482" stroke-linejoin="round"/>
<path d="M28.0172 21.5269L21.8271 23.1601L21.8496 30.4999L28.0455 28.8653L28.0172 21.5269Z" fill="#135562" stroke="#E2E2E2" stroke-width="1.7482" stroke-linejoin="round"/>
<path d="M15.9994 27.6987L15.9717 20.3931L21.7808 23.1999L21.8094 30.5051L15.9994 27.6987Z" fill="#218EA4" stroke="#E2E2E2" stroke-width="1.7482" stroke-linejoin="round"/>
<path d="M16.3092 8.60303L10.1191 10.2363L10.1417 17.576L16.3375 15.9416L16.3092 8.60303Z" stroke="#E2E2E2" stroke-width="1.7482" stroke-linejoin="round"/>
<path d="M10.1182 10.2876L16.3167 8.65088L22.1863 11.4708L15.9886 13.1079L10.1182 10.2876Z" fill="#B45427" stroke="#E2E2E2" stroke-width="1.7482" stroke-linejoin="round"/>
<path d="M22.1697 11.4253L15.9795 13.0585L16.0021 20.3983L22.198 18.7638L22.1697 11.4253Z" fill="#B45427" stroke="#E2E2E2" stroke-width="1.7482" stroke-linejoin="round"/>
<path d="M10.1509 17.5971L10.123 10.2915L15.9323 13.0984L15.9609 20.4035L10.1509 17.5971Z" fill="#ED6E33" stroke="#E2E2E2" stroke-width="1.7482" stroke-linejoin="round"/>
</g>
</g>
</g>
<defs>
<clipPath id="clip0_7577_1731">
<rect width="146" height="44" fill="white" transform="translate(0.943359)"/>
</clipPath>
</defs>
</svg>
