<svg width="80" height="80" viewBox="0 0 80 80" fill="none" xmlns="http://www.w3.org/2000/svg">
<circle cx="40" cy="40" r="40" fill="#28A1FF"/>
<path d="M37.5017 20.9001C38.9017 19.7201 41.1617 19.7201 42.5217 20.9001L45.6817 23.6001C46.2817 24.1001 47.4217 24.5201 48.2217 24.5201H51.6217C53.7417 24.5201 55.4817 26.2601 55.4817 28.3801V31.7801C55.4817 32.5801 55.9017 33.7001 56.4017 34.3001L59.1017 37.4601C60.2817 38.8601 60.2817 41.1201 59.1017 42.4801L56.4017 45.6401C55.9017 46.2401 55.4817 47.3601 55.4817 48.1601V51.5601C55.4817 53.6801 53.7417 55.4201 51.6217 55.4201H48.2217C47.4217 55.4201 46.3017 55.8401 45.7017 56.3401L42.5417 59.0401C41.1417 60.2201 38.8817 60.2201 37.5217 59.0401L34.3617 56.3401C33.7617 55.8401 32.6217 55.4201 31.8417 55.4201H28.3417C26.2217 55.4201 24.4817 53.6801 24.4817 51.5601V48.1401C24.4817 47.3601 24.0817 46.2201 23.5817 45.6401L20.8817 42.4601C19.7217 41.0801 19.7217 38.8401 20.8817 37.4601L23.5817 34.2801C24.0817 33.6801 24.4817 32.5601 24.4817 31.7801V28.4001C24.4817 26.2801 26.2217 24.5401 28.3417 24.5401H31.8017C32.6017 24.5401 33.7217 24.1201 34.3217 23.6201L37.5017 20.9001Z" stroke="#EBEFF7" stroke-width="1.8" stroke-linecap="round" stroke-linejoin="round"/>
<path d="M40 32.2598V41.9198" stroke="#EBEFF7" stroke-width="1.8" stroke-linecap="round" stroke-linejoin="round"/>
<path d="M39.9883 48H40.0062" stroke="#EBEFF7" stroke-width="2" stroke-linecap="round" stroke-linejoin="round"/>
</svg>
