<svg width="24" height="25" viewBox="0 0 24 25" fill="none" xmlns="http://www.w3.org/2000/svg">
<g id="file-plus-02">
<path id="Fill" opacity="0.12" d="M15.2 2.5H8.8C7.11984 2.5 6.27976 2.5 5.63803 2.82698C5.07354 3.1146 4.6146 3.57354 4.32698 4.13803C4 4.77976 4 5.61984 4 7.3V17.7C4 19.3802 4 20.2202 4.32698 20.862C4.6146 21.4265 5.07354 21.8854 5.63803 22.173C6.27976 22.5 7.11982 22.5 8.79993 22.5H12L20 11V7.3C20 5.61984 20 4.77976 19.673 4.13803C19.3854 3.57354 18.9265 3.1146 18.362 2.82698C17.7202 2.5 16.8802 2.5 15.2 2.5Z" fill="white" fill-opacity="0.8"/>
<path id="Icon" d="M20 11V7.3C20 5.61984 20 4.77976 19.673 4.13803C19.3854 3.57354 18.9265 3.1146 18.362 2.82698C17.7202 2.5 16.8802 2.5 15.2 2.5H8.8C7.11984 2.5 6.27976 2.5 5.63803 2.82698C5.07354 3.1146 4.6146 3.57354 4.32698 4.13803C4 4.77976 4 5.61984 4 7.3V17.7C4 19.3802 4 20.2202 4.32698 20.862C4.6146 21.4265 5.07354 21.8854 5.63803 22.173C6.27976 22.5 7.11984 22.5 8.8 22.5H12M14 11.5H8M10 15.5H8M16 7.5H8M18 21.5V15.5M15 18.5H21" stroke="white" stroke-opacity="0.8" stroke-width="2" stroke-linecap="round" stroke-linejoin="round"/>
</g>
</svg>
