<svg width="24" height="24" viewBox="0 0 24 24" fill="none" xmlns="http://www.w3.org/2000/svg">
<g id="settings-02">
<path id="Fill" opacity="0.12" fill-rule="evenodd" clip-rule="evenodd" d="M9.97363 20.6856L9.38918 19.3711C9.18095 18.902 8.82927 18.511 8.38474 18.2544C7.93995 17.9979 7.42541 17.8886 6.91474 17.9422L5.48474 18.0944C5.0591 18.1392 4.62962 18.0596 4.24825 17.8654C3.86688 17.6712 3.54997 17.3706 3.33585 17C3.12167 16.6295 3.01963 16.2047 3.04212 15.7773C3.0646 15.3499 3.21064 14.9382 3.46252 14.5922L4.30918 13.4289C4.61112 13.0137 4.77372 12.5134 4.77363 12C4.77372 11.4866 4.61112 10.9864 4.30918 10.5711L3.46252 9.40778C3.21064 9.06176 3.0646 8.65007 3.04212 8.22267C3.01963 7.79528 3.12167 7.37054 3.33585 7C3.54975 6.62924 3.86663 6.32849 4.24805 6.13423C4.62948 5.93997 5.05907 5.86053 5.48474 5.90556L6.91918 6.05778C7.42985 6.11141 7.9444 6.00212 8.38918 5.74556C8.83206 5.48825 9.18211 5.09736 9.38918 4.62889L9.97363 3.31444C10.1474 2.92317 10.4309 2.59072 10.7899 2.3574C11.1488 2.12408 11.5677 1.99993 11.9958 2C12.424 1.99993 12.8429 2.12408 13.2018 2.3574C13.5608 2.59072 13.8443 2.92317 14.0181 3.31444L14.607 4.62889C14.814 5.09736 15.1641 5.48825 15.607 5.74556C16.0517 6.00212 16.5663 6.11141 17.077 6.05778L18.507 5.90556C18.9326 5.86053 19.3622 5.93997 19.7436 6.13423C20.1251 6.32849 20.4419 6.62924 20.6558 7C20.87 7.37054 20.9721 7.79528 20.9496 8.22267C20.9271 8.65007 20.7811 9.06176 20.5292 9.40778L19.6825 10.5711C19.3806 10.9864 19.218 11.4866 19.2181 12C19.2155 12.5148 19.3766 13.0171 19.6781 13.4344L20.5247 14.5978C20.7766 14.9438 20.9227 15.3555 20.9451 15.7829C20.9676 16.2103 20.8656 16.635 20.6514 17.0056C20.4375 17.3763 20.1206 17.6771 19.7392 17.8713C19.3578 18.0656 18.9282 18.145 18.5025 18.1L17.0725 17.9478C16.5618 17.8941 16.0473 18.0034 15.6025 18.26C15.1605 18.5159 14.8106 18.9047 14.6025 19.3711L14.0181 20.6856C13.8443 21.0768 13.5608 21.4093 13.2018 21.6426C12.8429 21.8759 12.424 22.0001 11.9958 22C11.5677 22.0001 11.1488 21.8759 10.7899 21.6426C10.4309 21.4093 10.1474 21.0768 9.97363 20.6856ZM15.1001 12C15.1001 13.6569 13.757 15 12.1001 15C10.4432 15 9.1001 13.6569 9.1001 12C9.1001 10.3431 10.4432 9 12.1001 9C13.757 9 15.1001 10.3431 15.1001 12Z" fill="white" fill-opacity="0.8"/>
<g id="Icon">
<path d="M12.0019 15C13.6587 15 15.0019 13.6569 15.0019 12C15.0019 10.3431 13.6587 9 12.0019 9C10.345 9 9.00189 10.3431 9.00189 12C9.00189 13.6569 10.345 15 12.0019 15Z" stroke="white" stroke-opacity="0.8" stroke-width="2" stroke-linecap="round" stroke-linejoin="round"/>
<path d="M9.397 19.3711L9.98144 20.6856C10.1552 21.0768 10.4387 21.4093 10.7977 21.6426C11.1566 21.8759 11.5755 22.0001 12.0037 22C12.4318 22.0001 12.8507 21.8759 13.2097 21.6426C13.5686 21.4093 13.8521 21.0768 14.0259 20.6856L14.6103 19.3711C14.8184 18.9047 15.1683 18.5159 15.6103 18.26C16.0551 18.0034 16.5697 17.8941 17.0803 17.9478L18.5103 18.1C18.936 18.145 19.3656 18.0656 19.747 17.8713C20.1284 17.6771 20.4453 17.3763 20.6592 17.0056C20.8734 16.635 20.9754 16.2103 20.9529 15.7829C20.9305 15.3555 20.7844 14.9438 20.5326 14.5978L19.6859 13.4344C19.3844 13.0171 19.2233 12.5148 19.2259 12C19.2258 11.4866 19.3884 10.9864 19.6903 10.5711L20.537 9.40778C20.7889 9.06175 20.9349 8.65007 20.9574 8.22267C20.9799 7.79528 20.8778 7.37054 20.6637 7C20.4498 6.62923 20.1329 6.32849 19.7515 6.13423C19.37 5.93997 18.9404 5.86053 18.5148 5.90556L17.0848 6.05778C16.5741 6.11141 16.0596 6.00212 15.6148 5.74556C15.1719 5.48825 14.8218 5.09736 14.6148 4.62889L14.0259 3.31444C13.8521 2.92317 13.5686 2.59072 13.2097 2.3574C12.8507 2.12408 12.4318 1.99993 12.0037 2C11.5755 1.99993 11.1566 2.12408 10.7977 2.3574C10.4387 2.59072 10.1552 2.92317 9.98144 3.31444L9.397 4.62889C9.18992 5.09736 8.83987 5.48825 8.397 5.74556C7.95221 6.00212 7.43766 6.11141 6.927 6.05778L5.49255 5.90556C5.06688 5.86053 4.63729 5.93997 4.25587 6.13423C3.87444 6.32849 3.55757 6.62923 3.34366 7C3.12948 7.37054 3.02744 7.79528 3.04993 8.22267C3.07241 8.65007 3.21845 9.06175 3.47033 9.40778L4.31699 10.5711C4.61894 10.9864 4.78153 11.4866 4.78144 12C4.78153 12.5134 4.61894 13.0137 4.31699 13.4289L3.47033 14.5922C3.21845 14.9382 3.07241 15.3499 3.04993 15.7773C3.02744 16.2047 3.12948 16.6295 3.34366 17C3.55778 17.3706 3.87469 17.6712 4.25606 17.8654C4.63743 18.0596 5.06691 18.1392 5.49255 18.0944L6.92255 17.9422C7.43322 17.8886 7.94777 17.9979 8.39255 18.2544C8.83708 18.511 9.18876 18.902 9.397 19.3711Z" stroke="white" stroke-opacity="0.8" stroke-width="2" stroke-linecap="round" stroke-linejoin="round"/>
</g>
</g>
</svg>
