<svg width="24" height="25" viewBox="0 0 24 25" fill="none" xmlns="http://www.w3.org/2000/svg">
<g id="building-06">
<path id="Fill" opacity="0.12" d="M3 14.9354C3 13.8152 3 13.2552 3.21799 12.8274C3.40973 12.451 3.71569 12.1451 4.09202 11.9533C4.51984 11.7354 5.0799 11.7354 6.2 11.7354H11V21.7354H3V14.9354Z" fill="white" fill-opacity="0.8"/>
<path id="Icon" d="M11 11.7354H6.2C5.07989 11.7354 4.51984 11.7354 4.09202 11.9533C3.71569 12.1451 3.40973 12.451 3.21799 12.8274C3 13.2552 3 13.8152 3 14.9354V21.7354M21 21.7354V6.93535C21 5.81525 21 5.25519 20.782 4.82737C20.5903 4.45105 20.2843 4.14509 19.908 3.95334C19.4802 3.73535 18.9201 3.73535 17.8 3.73535H14.2C13.0799 3.73535 12.5198 3.73535 12.092 3.95334C11.7157 4.14509 11.4097 4.45105 11.218 4.82737C11 5.25519 11 5.81525 11 6.93535V21.7354M22 21.7354H2M14.5 7.73535H17.5M14.5 11.7354H17.5M14.5 15.7354H17.5" stroke="white" stroke-opacity="0.8" stroke-width="2" stroke-linecap="round" stroke-linejoin="round"/>
</g>
</svg>
