<svg width="24" height="25" viewBox="0 0 24 25" fill="none" xmlns="http://www.w3.org/2000/svg">
<g id="puzzle-piece-02">
<path id="Fill" opacity="0.12" d="M12 2.5L15.6 6.1C18 -0.2 24.7 6.5 18.4 8.9L22 12.5L18.4 16.1C16 9.8 9.3 16.5 15.6 18.9L12 22.5L8.4 18.9C6 25.2 -0.7 18.5 5.6 16.1L2 12.5L5.6 8.9C8 15.2 14.7 8.5 8.4 6.1L12 2.5Z" fill="white" fill-opacity="0.8"/>
<path id="Icon" d="M12 2.5L15.6 6.1C18 -0.2 24.7 6.5 18.4 8.9L22 12.5L18.4 16.1C16 9.8 9.3 16.5 15.6 18.9L12 22.5L8.4 18.9C6 25.2 -0.7 18.5 5.6 16.1L2 12.5L5.6 8.9C8 15.2 14.7 8.5 8.4 6.1L12 2.5Z" stroke="white" stroke-opacity="0.8" stroke-width="2" stroke-linecap="round" stroke-linejoin="round"/>
</g>
</svg>
