<svg width="24" height="25" viewBox="0 0 24 25" fill="none" xmlns="http://www.w3.org/2000/svg">
<g id="user-02">
<path id="Fill" opacity="0.12" d="M12 12.7358C14.4853 12.7358 16.5 10.7211 16.5 8.23584C16.5 5.75056 14.4853 3.73584 12 3.73584C9.51472 3.73584 7.5 5.75056 7.5 8.23584C7.5 10.7211 9.51472 12.7358 12 12.7358Z" fill="white" fill-opacity="0.8"/>
<g id="Icon">
<path d="M12.0018 15.7358C8.83173 15.7358 6.0126 17.2665 4.2178 19.6418C3.83151 20.153 3.63836 20.4087 3.64468 20.7541C3.64956 21.021 3.81716 21.3577 4.02717 21.5225C4.29899 21.7358 4.67567 21.7358 5.42904 21.7358H18.5746C19.3279 21.7358 19.7046 21.7358 19.9764 21.5225C20.1864 21.3577 20.354 21.021 20.3589 20.7541C20.3652 20.4087 20.1721 20.153 19.7858 19.6418C17.991 17.2665 15.1719 15.7358 12.0018 15.7358Z" stroke="white" stroke-opacity="0.8" stroke-width="2" stroke-linecap="round" stroke-linejoin="round"/>
<path d="M12.0018 12.7358C14.4871 12.7358 16.5018 10.7211 16.5018 8.23584C16.5018 5.75056 14.4871 3.73584 12.0018 3.73584C9.51652 3.73584 7.5018 5.75056 7.5018 8.23584C7.5018 10.7211 9.51652 12.7358 12.0018 12.7358Z" stroke="white" stroke-opacity="0.8" stroke-width="2" stroke-linecap="round" stroke-linejoin="round"/>
</g>
</g>
</svg>
