<svg width="35" height="35" viewBox="0 0 35 35" fill="none" xmlns="http://www.w3.org/2000/svg">
<g id="Icon/Outline/adjustments">
<path id="Icon" d="M17.5 8.75065V5.83398M17.5 8.75065C15.8891 8.75065 14.5833 10.0565 14.5833 11.6673C14.5833 13.2781 15.8891 14.584 17.5 14.584M17.5 8.75065C19.1108 8.75065 20.4166 10.0565 20.4166 11.6673C20.4166 13.2781 19.1108 14.584 17.5 14.584M8.74998 26.2507C10.3608 26.2507 11.6666 24.9448 11.6666 23.334C11.6666 21.7232 10.3608 20.4173 8.74998 20.4173M8.74998 26.2507C7.13915 26.2507 5.83331 24.9448 5.83331 23.334C5.83331 21.7232 7.13915 20.4173 8.74998 20.4173M8.74998 26.2507V29.1673M8.74998 20.4173V5.83398M17.5 14.584V29.1673M26.25 26.2507C27.8608 26.2507 29.1666 24.9448 29.1666 23.334C29.1666 21.7232 27.8608 20.4173 26.25 20.4173M26.25 26.2507C24.6391 26.2507 23.3333 24.9448 23.3333 23.334C23.3333 21.7232 24.6391 20.4173 26.25 20.4173M26.25 26.2507V29.1673M26.25 20.4173V5.83398" stroke="white" stroke-opacity="0.8" stroke-width="1.73333" stroke-linecap="round" stroke-linejoin="round"/>
</g>
</svg>
