<svg width="40" height="40" viewBox="0 0 40 40" fill="none" xmlns="http://www.w3.org/2000/svg">
<circle cx="20" cy="20" r="20" fill="#28A1FF"/>
<path d="M18.7499 10.4503C19.4499 9.86031 20.5799 9.86031 21.2599 10.4503L22.8399 11.8003C23.1399 12.0503 23.7099 12.2603 24.1099 12.2603H25.8099C26.8699 12.2603 27.7399 13.1303 27.7399 14.1903V15.8903C27.7399 16.2903 27.9499 16.8503 28.1999 17.1503L29.5499 18.7303C30.1399 19.4303 30.1399 20.5603 29.5499 21.2403L28.1999 22.8203C27.9499 23.1203 27.7399 23.6803 27.7399 24.0803V25.7803C27.7399 26.8403 26.8699 27.7103 25.8099 27.7103H24.1099C23.7099 27.7103 23.1499 27.9203 22.8499 28.1703L21.2699 29.5203C20.5699 30.1103 19.4399 30.1103 18.7599 29.5203L17.1799 28.1703C16.8799 27.9203 16.3099 27.7103 15.9199 27.7103H14.1699C13.1099 27.7103 12.2399 26.8403 12.2399 25.7803V24.0703C12.2399 23.6803 12.0399 23.1103 11.7899 22.8203L10.4399 21.2303C9.85988 20.5403 9.85988 19.4203 10.4399 18.7303L11.7899 17.1403C12.0399 16.8403 12.2399 16.2803 12.2399 15.8903V14.2003C12.2399 13.1403 13.1099 12.2703 14.1699 12.2703H15.8999C16.2999 12.2703 16.8599 12.0603 17.1599 11.8103L18.7499 10.4503Z" stroke="white" stroke-width="1.5" stroke-linecap="round" stroke-linejoin="round"/>
<path d="M20 16.1309V20.9609" stroke="white" stroke-width="1.5" stroke-linecap="round" stroke-linejoin="round"/>
<path d="M19.9946 24H20.0036" stroke="white" stroke-width="2" stroke-linecap="round" stroke-linejoin="round"/>
</svg>
