<svg width="23" height="22" viewBox="0 0 23 22" fill="none" xmlns="http://www.w3.org/2000/svg">
<g id="Icon/Outline/light-bulb">
<path id="Icon" d="M9.70527 15.5682H13.9394M11.8224 2.88281V3.78891M17.5887 5.27133L16.948 5.91204M19.9773 11.0377H19.0712M4.57358 11.0377H3.66748M6.69666 5.91204L6.05595 5.27133M8.6188 14.2413C6.84952 12.472 6.84952 9.60347 8.6188 7.8342C10.3881 6.06492 13.2566 6.06492 15.0259 7.8342C16.7952 9.60347 16.7952 12.472 15.0259 14.2413L14.5302 14.737C13.9567 15.3105 13.6346 16.0883 13.6346 16.8993V17.3804C13.6346 18.3813 12.8232 19.1927 11.8224 19.1927C10.8215 19.1927 10.0101 18.3813 10.0101 17.3804V16.8993C10.0101 16.0883 9.68798 15.3105 9.11452 14.737L8.6188 14.2413Z" stroke="#F3F3F3" stroke-opacity="0.6" stroke-width="0.906102" stroke-linecap="round" stroke-linejoin="round"/>
</g>
</svg>
