<svg width="20" height="20" viewBox="0 0 20 20" fill="none" xmlns="http://www.w3.org/2000/svg">
<g id="ep:coin">
<path id="Vector" d="M3.1625 11.3438L3.74625 12.4938C3.34625 12.8875 3.125 13.3162 3.125 13.7512C3.125 15.3587 6.15875 16.8762 10 16.8762C13.8412 16.8762 16.875 15.3587 16.875 13.7512C16.875 13.3162 16.6525 12.8887 16.2538 12.495L16.8488 11.3537C17.655 12.0287 18.125 12.8462 18.125 13.7512C18.125 16.285 14.4425 18.1262 10 18.1262C5.5575 18.1262 1.875 16.285 1.875 13.7512C1.875 12.8412 2.35 12.0212 3.1625 11.3438Z" fill="white"/>
<path id="Vector_2" d="M3.1625 7.59375L3.74625 8.74375C3.34625 9.13875 3.125 9.5675 3.125 10.0013C3.125 11.6088 6.15875 13.1263 10 13.1263C13.8412 13.1263 16.875 11.6088 16.875 10.0013C16.875 9.56625 16.6525 9.13875 16.2538 8.745L16.8488 7.60375C17.655 8.27875 18.125 9.09625 18.125 10.0013C18.125 12.535 14.4425 14.3763 10 14.3763C5.5575 14.3763 1.875 12.535 1.875 10.0013C1.875 9.09125 2.35 8.27125 3.1625 7.59375Z" fill="white"/>
<path id="Vector_3" d="M10 10.625C5.5575 10.625 1.875 8.78375 1.875 6.25C1.875 3.71625 5.5575 1.875 10 1.875C14.4425 1.875 18.125 3.71625 18.125 6.25C18.125 8.78375 14.4425 10.625 10 10.625ZM10 9.375C13.8412 9.375 16.875 7.8575 16.875 6.25C16.875 4.6425 13.8412 3.125 10 3.125C6.15875 3.125 3.125 4.6425 3.125 6.25C3.125 7.8575 6.15875 9.375 10 9.375Z" fill="white"/>
</g>
</svg>
