<svg width="26" height="26" viewBox="0 0 26 26" fill="none" xmlns="http://www.w3.org/2000/svg">
<g id="Icon/Outline/check-circle">
<path id="Icon" d="M10.4571 12.2929C10.0666 11.9024 9.43342 11.9024 9.04289 12.2929C8.65237 12.6834 8.65237 13.3166 9.04289 13.7071L11.2096 15.8738C11.6001 16.2643 12.2332 16.2643 12.6238 15.8738L16.9571 11.5404C17.3476 11.1499 17.3476 10.5168 16.9571 10.1262C16.5666 9.7357 15.9334 9.7357 15.5429 10.1262L11.9167 13.7525L10.4571 12.2929ZM21.75 13C21.75 17.8325 17.8325 21.75 13 21.75C8.16751 21.75 4.25 17.8325 4.25 13C4.25 8.16751 8.16751 4.25 13 4.25C17.8325 4.25 21.75 8.16751 21.75 13Z" stroke="#0ACF83" stroke-width="2" stroke-linecap="round" stroke-linejoin="round"/>
</g>
</svg>
