<svg width="35" height="36" viewBox="0 0 35 36" fill="none" xmlns="http://www.w3.org/2000/svg">
<g id="help-octagon">
<path id="Icon" d="M13.256 13.8021C13.5989 12.8274 14.2756 12.0056 15.1664 11.4821C16.0571 10.9585 17.1044 10.7672 18.1228 10.9419C19.1411 11.1165 20.0647 11.646 20.7301 12.4364C21.3955 13.2268 21.7597 14.2272 21.7581 15.2604C21.7581 18.1771 17.3831 19.6354 17.3831 19.6354M17.4998 25.4687H17.5144M2.9165 13.1061V23.2481C2.9165 23.6048 2.9165 23.7831 2.9568 23.951C2.99252 24.0998 3.05145 24.242 3.1314 24.3725C3.22159 24.5197 3.3477 24.6458 3.59992 24.898L10.7789 32.077C11.0311 32.3292 11.1573 32.4553 11.3044 32.5455C11.4349 32.6255 11.5772 32.6844 11.726 32.7201C11.8938 32.7604 12.0721 32.7604 12.4288 32.7604H22.5708C22.9275 32.7604 23.1059 32.7604 23.2737 32.7201C23.4225 32.6844 23.5648 32.6255 23.6953 32.5455C23.8424 32.4553 23.9685 32.3292 24.2208 32.077L31.3998 24.898C31.652 24.6458 31.7781 24.5197 31.8683 24.3725C31.9482 24.242 32.0072 24.0998 32.0429 23.951C32.0832 23.7831 32.0832 23.6048 32.0832 23.2481V13.1061C32.0832 12.7494 32.0832 12.571 32.0429 12.4032C32.0072 12.2544 31.9482 12.1121 31.8683 11.9817C31.7781 11.8345 31.652 11.7084 31.3998 11.4562L24.2208 4.27717C23.9685 4.02495 23.8424 3.89884 23.6953 3.80865C23.5648 3.72869 23.4225 3.66977 23.2737 3.63404C23.1059 3.59375 22.9275 3.59375 22.5708 3.59375H12.4288C12.0721 3.59375 11.8938 3.59375 11.726 3.63404C11.5772 3.66977 11.4349 3.72869 11.3044 3.80865C11.1573 3.89884 11.0311 4.02495 10.7789 4.27717L3.59992 11.4562C3.3477 11.7084 3.22159 11.8345 3.1314 11.9817C3.05145 12.1121 2.99252 12.2544 2.9568 12.4032C2.9165 12.571 2.9165 12.7494 2.9165 13.1061Z" stroke="#B6B6B6" stroke-width="2" stroke-linecap="round" stroke-linejoin="round"/>
</g>
</svg>
