<svg width="20" height="20" viewBox="0 0 20 20" fill="none" xmlns="http://www.w3.org/2000/svg">
<g id="mail-05">
<path id="Icon" d="M11.4534 2.19382L17.7267 6.27149C17.9484 6.41558 18.0592 6.48762 18.1395 6.58372C18.2106 6.66879 18.264 6.76718 18.2966 6.87314C18.3334 6.99284 18.3334 7.12503 18.3334 7.38942V13.4992C18.3334 14.8993 18.3334 15.5994 18.0609 16.1341C17.8212 16.6046 17.4388 16.987 16.9684 17.2267C16.4336 17.4992 15.7335 17.4992 14.3334 17.4992H5.66675C4.26662 17.4992 3.56655 17.4992 3.03177 17.2267C2.56137 16.987 2.17892 16.6046 1.93923 16.1341C1.66675 15.5994 1.66675 14.8993 1.66675 13.4992V7.38942C1.66675 7.12503 1.66675 6.99284 1.70356 6.87314C1.73614 6.76718 1.78954 6.66879 1.86062 6.58372C1.94092 6.48762 2.05176 6.41558 2.27343 6.27149L8.54678 2.19382M11.4534 2.19382C10.9273 1.85189 10.6643 1.68093 10.3809 1.61441C10.1304 1.55561 9.86973 1.55561 9.61923 1.61441C9.33583 1.68093 9.07282 1.85189 8.54678 2.19382M11.4534 2.19382L16.6135 5.54791C17.1867 5.92049 17.4733 6.10679 17.5726 6.34303C17.6594 6.54949 17.6594 6.78218 17.5726 6.98864C17.4733 7.22488 17.1867 7.41118 16.6135 7.78376L11.4534 11.1379C10.9274 11.4798 10.6643 11.6507 10.3809 11.7173C10.1304 11.7761 9.86973 11.7761 9.61923 11.7173C9.33583 11.6507 9.07282 11.4798 8.54678 11.1379L3.38663 7.78376C2.81343 7.41118 2.52682 7.22488 2.42756 6.98864C2.34081 6.78218 2.34081 6.54949 2.42756 6.34303C2.52682 6.10679 2.81343 5.9205 3.38663 5.54791L8.54678 2.19382M17.9167 15.8325L12.3811 10.8325M7.6191 10.8325L2.08341 15.8325" stroke="white" stroke-linecap="round" stroke-linejoin="round"/>
</g>
</svg>
