<svg width="40" height="40" viewBox="0 0 40 40" fill="none" xmlns="http://www.w3.org/2000/svg">
<g id="notion">
<path id="bg" fill-rule="evenodd" clip-rule="evenodd" d="M7.145 36.5222L2.8458 31.1664C1.81141 29.8778 1.25 28.2933 1.25 26.6623V7.26873C1.25 4.8258 3.20448 2.79871 5.72589 2.62656L25.6652 1.26523C27.1137 1.16633 28.5535 1.55136 29.7434 2.35588L36.7491 7.09239C38.0031 7.94024 38.75 9.32623 38.75 10.8053V32.854C38.75 35.2447 36.8282 37.2241 34.3595 37.3761L12.2292 38.7383C10.2592 38.8596 8.35499 38.0296 7.145 36.5222Z" fill="white"/>
<g id="vector">
<path d="M14.0601 16.9733V16.7194C14.0601 16.0757 14.5756 15.542 15.2399 15.4976L20.0791 15.1745L26.7713 25.0293V16.3801L25.0488 16.1504V16.0298C25.0488 15.3787 25.576 14.8414 26.2488 14.8069L30.652 14.5813V15.215C30.652 15.5124 30.4308 15.7669 30.1276 15.8181L29.068 15.9974V30.0045L27.7382 30.4618C26.6273 30.8439 25.3905 30.4349 24.7545 29.4752L18.2576 19.6714V29.0286L20.2573 29.4113L20.2295 29.5968C20.1422 30.1778 19.6406 30.6172 19.0337 30.6442L14.0601 30.8656C13.9944 30.2408 14.4626 29.6818 15.1086 29.614L15.7629 29.5452V17.0689L14.0601 16.9733Z" fill="black"/>
<path fill-rule="evenodd" clip-rule="evenodd" d="M25.8436 3.70836L5.90434 5.06969C4.70999 5.15124 3.78418 6.11144 3.78418 7.26861V26.6622C3.78418 27.7495 4.15845 28.8059 4.84804 29.6649L9.14724 35.0208C9.84235 35.8867 10.9362 36.3635 12.0679 36.2938L34.1983 34.9316C35.3326 34.8617 36.2155 33.9523 36.2155 32.8538V10.8052C36.2155 10.1256 35.8724 9.48881 35.2962 9.09926L28.2906 4.36275C27.5766 3.88004 26.7128 3.64902 25.8436 3.70836ZM6.89309 7.57112C6.61576 7.36581 6.74775 6.93806 7.09613 6.91307L25.9777 5.55876C26.5793 5.51561 27.1771 5.68128 27.6637 6.02598L31.4521 8.71004C31.5959 8.81194 31.5285 9.03192 31.3504 9.0416L11.3548 10.1291C10.7497 10.162 10.1524 9.98422 9.67127 9.628L6.89309 7.57112ZM10.417 13.5383C10.417 12.8887 10.9418 12.3521 11.6128 12.3155L32.7538 11.1642C33.4078 11.1286 33.9584 11.6315 33.9584 12.2646V31.3565C33.9584 32.0049 33.4355 32.5409 32.7657 32.579L11.7586 33.7743C11.0307 33.8157 10.417 33.2564 10.417 32.5517V13.5383Z" fill="black"/>
</g>
</g>
</svg>
