<svg width="19" height="18" viewBox="0 0 19 18" fill="none" xmlns="http://www.w3.org/2000/svg">
<path d="M8.24976 10.2501L16.9998 1.50014M8.35608 10.5235L10.5462 16.1552C10.7391 16.6513 10.8356 16.8994 10.9746 16.9718C11.0951 17.0346 11.2386 17.0347 11.3592 16.972C11.4983 16.8998 11.595 16.6518 11.7886 16.1559L17.2805 2.08281C17.4552 1.63516 17.5426 1.41133 17.4948 1.26831C17.4533 1.1441 17.3558 1.04663 17.2316 1.00514C17.0886 0.957356 16.8647 1.0447 16.4171 1.21939L2.34398 6.71134C1.84808 6.90486 1.60013 7.00163 1.52788 7.14071C1.46524 7.26129 1.46532 7.40483 1.5281 7.52533C1.60052 7.66433 1.84859 7.7608 2.34471 7.95373L7.97638 10.1438C8.07708 10.183 8.12744 10.2026 8.16984 10.2328C8.20742 10.2596 8.24028 10.2925 8.26709 10.3301C8.29734 10.3725 8.31692 10.4228 8.35608 10.5235Z" stroke="#888888" stroke-width="1.66667" stroke-linecap="round" stroke-linejoin="round"/>
</svg>
