<svg width="25" height="24" viewBox="0 0 25 24" fill="none" xmlns="http://www.w3.org/2000/svg">
<g id="warning-sign-9769 2" clip-path="url(#clip0_6438_24621)">
<g id="Group">
<path id="Vector" d="M12.2367 15.2718C11.757 15.2718 11.3624 14.894 11.3413 14.4151L10.5152 6.44159C10.4401 5.44 11.2323 4.58594 12.2367 4.58594C13.2412 4.58594 14.0334 5.44 13.9583 6.44159L13.1319 14.4151C13.1111 14.8942 12.7165 15.2718 12.2367 15.2718Z" fill="#913E3E"/>
<path id="Vector_2" d="M12.2364 19.3869C13.025 19.3869 13.6643 18.7477 13.6643 17.9591C13.6643 17.1705 13.025 16.5312 12.2364 16.5312C11.4479 16.5312 10.8086 17.1705 10.8086 17.9591C10.8086 18.7477 11.4479 19.3869 12.2364 19.3869Z" fill="#913E3E"/>
<path id="Vector_3" d="M12.2365 23.8422C5.69985 23.8422 0.381836 18.5242 0.381836 11.9875C0.381836 5.45083 5.69985 0.132812 12.2365 0.132812C18.7732 0.132812 24.0912 5.45083 24.0912 11.9875C24.0912 18.5242 18.7732 23.8422 12.2365 23.8422ZM12.2365 1.71344C6.5713 1.71344 1.96246 6.32228 1.96246 11.9875C1.96246 17.6527 6.5713 22.2616 12.2365 22.2616C17.9017 22.2616 22.5106 17.6527 22.5106 11.9875C22.5106 6.32228 17.9017 1.71344 12.2365 1.71344Z" fill="#913E3E"/>
</g>
</g>
<defs>
<clipPath id="clip0_6438_24621">
<rect width="24" height="24" fill="white" transform="translate(0.25)"/>
</clipPath>
</defs>
</svg>
