<svg width="33" height="48" viewBox="0 0 33 48" fill="none" xmlns="http://www.w3.org/2000/svg">
<mask id="mask0_2570_11860" style="mask-type:luminance" maskUnits="userSpaceOnUse" x="0" y="0" width="33" height="48">
<path d="M33 0H0V48H33V0Z" fill="white"/>
</mask>
<g mask="url(#mask0_2570_11860)">
<path d="M8.25213 47.9999C12.8051 47.9999 16.5012 44.416 16.5012 39.9982V31.9985H8.25213C3.69913 31.9985 0.00390625 35.5825 0.00390625 39.9982C0.00390625 44.416 3.69913 47.9999 8.25213 47.9999Z" fill="#0ACF83"/>
<path d="M0.00390625 23.9997C0.00390625 19.584 3.69913 16 8.25213 16H16.5012V31.9993H8.25213C3.69913 31.9993 0.00390625 28.4153 0.00390625 23.9997Z" fill="#A259FF"/>
<path d="M0.00390625 7.99966C0.00390625 3.58397 3.69913 0 8.25213 0H16.5012V15.9993H8.25213C3.69913 15.9993 0.00390625 12.4153 0.00390625 7.99966Z" fill="#F24E1E"/>
<path d="M16.5 0H24.748C29.301 0 32.9971 3.58397 32.9971 7.99966C32.9971 12.4153 29.301 15.9993 24.748 15.9993H16.5V0Z" fill="#FF7262"/>
<path d="M32.9971 23.9997C32.9971 28.4153 29.301 31.9993 24.748 31.9993C20.195 31.9993 16.5 28.4153 16.5 23.9997C16.5 19.584 20.195 16 24.748 16C29.301 16 32.9971 19.584 32.9971 23.9997Z" fill="#1ABCFE"/>
</g>
</svg>
