<svg width="48" height="48" viewBox="0 0 48 48" fill="none" xmlns="http://www.w3.org/2000/svg">
<path fill-rule="evenodd" clip-rule="evenodd" d="M8.574 43.8267L3.41496 37.3997C2.17369 35.8535 1.5 33.9519 1.5 31.9949V8.72249C1.5 5.79096 3.84538 3.35846 6.87106 3.15188L30.7982 1.51827C32.5365 1.3996 34.2642 1.86164 35.6922 2.82705L44.0988 8.51087C45.6037 9.52829 46.5 11.1915 46.5 12.9664V39.4248C46.5 42.2937 44.1939 44.6689 41.2314 44.8513L14.675 46.486C12.311 46.6315 10.026 45.6356 8.574 43.8267Z" fill="white"/>
<path d="M16.8726 20.3678V20.0632C16.8726 19.2908 17.4912 18.6503 18.2885 18.5971L24.0954 18.2093L32.126 30.035V19.6559L30.059 19.3804V19.2358C30.059 18.4543 30.6917 17.8096 31.4991 17.7682L36.7829 17.4976V18.2579C36.7829 18.6148 36.5174 18.9202 36.1536 18.9817L34.8821 19.1968V36.0053L33.2864 36.554C31.9532 37.0126 30.4691 36.5218 29.7059 35.3702L21.9096 23.6056V34.8343L24.3092 35.2934L24.2759 35.516C24.171 36.2132 23.5691 36.7406 22.841 36.773L16.8726 37.0387C16.7937 36.2888 17.3556 35.6182 18.1308 35.5367L18.9159 35.4542V20.4826L16.8726 20.3678Z" fill="black"/>
<path fill-rule="evenodd" clip-rule="evenodd" d="M31.0124 4.44993L7.08521 6.08353C5.65199 6.18139 4.54102 7.33363 4.54102 8.72224V31.9946C4.54102 33.2993 4.99015 34.567 5.81765 35.5979L10.9767 42.0248C11.8108 43.0639 13.1235 43.6361 14.4815 43.5526L41.0379 41.9179C42.399 41.834 43.4586 40.7426 43.4586 39.4246V12.9661C43.4586 12.1506 43.0469 11.3865 42.3554 10.919L33.9488 5.23519C33.092 4.65595 32.0553 4.37872 31.0124 4.44993ZM8.27171 9.08526C7.93892 8.83887 8.09731 8.32558 8.51536 8.2956L31.1733 6.67042C31.8953 6.61864 32.6126 6.81744 33.1964 7.23108L37.7426 10.452C37.9151 10.5742 37.8342 10.8382 37.6205 10.8498L13.6258 12.1548C12.8997 12.1943 12.1829 11.981 11.6055 11.5535L8.27171 9.08526ZM12.5004 16.2458C12.5004 15.4663 13.1301 14.8224 13.9354 14.7786L39.3045 13.3969C40.0895 13.3542 40.7501 13.9578 40.7501 14.7175V37.6277C40.7501 38.4058 40.1226 39.049 39.3189 39.0947L14.1103 40.529C13.2369 40.5788 12.5004 39.9076 12.5004 39.062V16.2458Z" fill="black"/>
</svg>
