<svg width="48" height="48" viewBox="0 0 48 48" fill="none" xmlns="http://www.w3.org/2000/svg">
<path d="M10.1202 30.3439C10.1202 33.1337 7.86724 35.3885 5.07964 35.3885C2.29205 35.3885 0.0390625 33.1337 0.0390625 30.3439C0.0390625 27.5541 2.29205 25.2993 5.07964 25.2993H10.1202V30.3439ZM12.6405 30.3439C12.6405 27.5541 14.8935 25.2993 17.6811 25.2993C20.4687 25.2993 22.7217 27.5541 22.7217 30.3439V42.9553C22.7217 45.7452 20.4687 47.9999 17.6811 47.9999C14.8935 47.9999 12.6405 45.7452 12.6405 42.9553V30.3439Z" fill="#E01E5A"/>
<path d="M17.6802 10.0892C14.8926 10.0892 12.6396 7.83439 12.6396 5.04458C12.6396 2.25477 14.8926 0 17.6802 0C20.4678 0 22.7208 2.25477 22.7208 5.04458V10.0892H17.6802ZM17.6802 12.6497C20.4678 12.6497 22.7208 14.9044 22.7208 17.6942C22.7208 20.4841 20.4678 22.7388 17.6802 22.7388H5.04058C2.25299 22.7388 0 20.4841 0 17.6942C0 14.9044 2.25299 12.6497 5.04058 12.6497H17.6802Z" fill="#36C5F0"/>
<path d="M37.8808 17.6942C37.8808 14.9044 40.1337 12.6497 42.9213 12.6497C45.7089 12.6497 47.9619 14.9044 47.9619 17.6942C47.9619 20.4841 45.7089 22.7388 42.9213 22.7388H37.8808V17.6942ZM35.3605 17.6942C35.3605 20.4841 33.1075 22.7388 30.3199 22.7388C27.5323 22.7388 25.2793 20.4841 25.2793 17.6942V5.04458C25.2793 2.25477 27.5323 0 30.3199 0C33.1075 0 35.3605 2.25477 35.3605 5.04458V17.6942Z" fill="#2EB67D"/>
<path d="M30.3199 37.9108C33.1075 37.9108 35.3605 40.1655 35.3605 42.9553C35.3605 45.7452 33.1075 47.9999 30.3199 47.9999C27.5323 47.9999 25.2793 45.7452 25.2793 42.9553V37.9108H30.3199ZM30.3199 35.3885C27.5323 35.3885 25.2793 33.1337 25.2793 30.3439C25.2793 27.5541 27.5323 25.2993 30.3199 25.2993H42.9595C45.7471 25.2993 48.0001 27.5541 48.0001 30.3439C48.0001 33.1337 45.7471 35.3885 42.9595 35.3885H30.3199Z" fill="#ECB22E"/>
</svg>
