<svg width="28" height="28" viewBox="0 0 28 28" fill="none" xmlns="http://www.w3.org/2000/svg">
<path fill-rule="evenodd" clip-rule="evenodd" d="M16.6257 2.91667C16.6257 2.83931 16.5949 2.76513 16.5402 2.71043C16.4855 2.65573 16.4113 2.625 16.334 2.625H8.16732C7.31641 2.625 6.50036 2.96302 5.89868 3.5647C5.297 4.16638 4.95898 4.98243 4.95898 5.83333V22.1667C4.95898 23.0176 5.297 23.8336 5.89868 24.4353C6.50036 25.037 7.31641 25.375 8.16732 25.375H19.834C20.6849 25.375 21.5009 25.037 22.1026 24.4353C22.7043 23.8336 23.0423 23.0176 23.0423 22.1667V10.6715C23.0423 10.5941 23.0116 10.52 22.9569 10.4653C22.9022 10.4106 22.828 10.3798 22.7507 10.3798H17.5007C17.2686 10.3798 17.046 10.2876 16.8819 10.1236C16.7178 9.95946 16.6257 9.7369 16.6257 9.50483V2.91667ZM17.5007 14.2917C17.7327 14.2917 17.9553 14.3839 18.1194 14.5479C18.2835 14.712 18.3757 14.9346 18.3757 15.1667C18.3757 15.3987 18.2835 15.6213 18.1194 15.7854C17.9553 15.9495 17.7327 16.0417 17.5007 16.0417H10.5007C10.2686 16.0417 10.046 15.9495 9.88193 15.7854C9.71784 15.6213 9.62565 15.3987 9.62565 15.1667C9.62565 14.9346 9.71784 14.712 9.88193 14.5479C10.046 14.3839 10.2686 14.2917 10.5007 14.2917H17.5007ZM17.5007 18.9583C17.7327 18.9583 17.9553 19.0505 18.1194 19.2146C18.2835 19.3787 18.3757 19.6013 18.3757 19.8333C18.3757 20.0654 18.2835 20.288 18.1194 20.4521C17.9553 20.6161 17.7327 20.7083 17.5007 20.7083H10.5007C10.2686 20.7083 10.046 20.6161 9.88193 20.4521C9.71784 20.288 9.62565 20.0654 9.62565 19.8333C9.62565 19.6013 9.71784 19.3787 9.88193 19.2146C10.046 19.0505 10.2686 18.9583 10.5007 18.9583H17.5007Z" fill="white"/>
<path d="M18.375 3.2947C18.375 3.08003 18.6002 2.94353 18.767 3.0777C18.9082 3.19203 19.0353 3.32503 19.1438 3.4767L22.659 8.3732C22.7383 8.4852 22.652 8.62986 22.5143 8.62986H18.6667C18.5893 8.62986 18.5151 8.59913 18.4604 8.54444C18.4057 8.48974 18.375 8.41555 18.375 8.3382V3.2947Z" fill="#94D1FF"/>
</svg>
