<svg width="24" height="24" viewBox="0 0 24 24" fill="none" xmlns="http://www.w3.org/2000/svg">
<g clip-path="url(#clip0_2570_11760)">
<path d="M23.3318 15.9477C23.7639 14.7108 23.9997 13.3825 23.9997 11.9999C23.9997 10.6174 23.7639 9.28906 23.3318 8.05214C23.3212 8.01498 23.3087 7.97875 23.2936 7.94388C21.6268 3.31719 17.1937 0 11.9998 0C6.80593 0 2.3727 3.31719 0.706075 7.94388C0.690937 7.97886 0.678322 8.01498 0.667887 8.05214C0.235779 9.28906 0 10.6174 0 11.9999C0 13.3825 0.235779 14.7108 0.667887 15.9477C0.678437 15.9849 0.690937 16.0211 0.706075 16.056C2.37281 20.6828 6.80593 23.9999 11.9998 23.9999C17.1937 23.9999 21.6268 20.6827 23.2936 16.056C23.3087 16.0211 23.3212 15.985 23.3318 15.9477ZM11.9998 22.2798C11.5428 22.2798 10.806 21.4528 10.1902 19.6051C9.89296 18.7134 9.655 17.6884 9.48161 16.5734H14.5181C14.3447 17.6884 14.1067 18.7133 13.8096 19.6051C13.1936 21.4528 12.4568 22.2798 11.9998 22.2798ZM9.27289 14.8533C9.19021 13.9361 9.14652 12.9792 9.14652 11.9999C9.14652 11.0207 9.19021 10.0638 9.27289 9.14663H14.7267C14.8093 10.0638 14.853 11.0207 14.853 11.9999C14.853 12.9792 14.8093 13.9361 14.7267 14.8533H9.27289ZM1.72006 12.0001C1.72006 11.0104 1.861 10.053 2.12327 9.14675H7.54756C7.46717 10.0829 7.42634 11.0423 7.42634 12.0001C7.42634 12.9579 7.46705 13.9173 7.54756 14.8534H2.12327C1.861 13.947 1.72006 12.9897 1.72006 12.0001ZM11.9998 1.72018C12.4568 1.72018 13.1937 2.54724 13.8096 4.39493C14.1067 5.28656 14.3448 6.31155 14.5181 7.42646H9.48149C9.65489 6.31144 9.89284 5.28656 10.1901 4.39493C10.806 2.54724 11.5428 1.72018 11.9998 1.72018ZM16.452 9.14675H21.8763C22.1385 10.053 22.2795 11.0104 22.2795 12.0001C22.2795 12.9897 22.1385 13.9471 21.8763 14.8534H16.452C16.5324 13.9173 16.5732 12.9579 16.5732 12.0001C16.5732 11.0423 16.5324 10.0829 16.452 9.14675ZM21.2041 7.42657H16.2546C15.9487 5.31683 15.4238 3.42407 14.6874 2.07751C17.5423 2.85148 19.9076 4.8275 21.2041 7.42657ZM9.31211 2.0774C8.57576 3.42395 8.05088 5.31672 7.74492 7.42657H2.7954C4.09207 4.8275 6.45719 2.85148 9.31211 2.0774ZM2.7954 16.5734H7.74492C8.05088 18.6832 8.57576 20.5759 9.31211 21.9226C6.45719 21.1485 4.09207 19.1726 2.7954 16.5734ZM14.6874 21.9226C15.4238 20.576 15.9487 18.6833 16.2546 16.5734H21.2041C19.9076 19.1726 17.5423 21.1485 14.6874 21.9226Z" fill="white"/>
</g>
<defs>
<clipPath id="clip0_2570_11760">
<rect width="24" height="24" fill="white"/>
</clipPath>
</defs>
</svg>
