<svg width="20" height="21" viewBox="0 0 20 21" fill="none" xmlns="http://www.w3.org/2000/svg">
<path d="M14.6 13.0016C14.4 12.9016 13.1 12.3016 12.9 12.2016C12.7 12.1016 12.5 12.1016 12.3 12.3016C12.1 12.5016 11.7 13.1016 11.5 13.3016C11.4 13.5016 11.2 13.5016 11 13.4016C10.3 13.1016 9.6 12.7016 9 12.2016C8.5 11.7016 8 11.1016 7.6 10.5016C7.5 10.3016 7.6 10.1016 7.7 10.0016C7.8 9.90156 7.9 9.70156 8.1 9.60156C8.2 9.50156 8.3 9.30156 8.3 9.20156C8.4 9.10156 8.4 8.90156 8.3 8.80156C8.2 8.70156 7.7 7.50156 7.5 7.00156C7.4 6.30156 7.2 6.30156 7 6.30156C6.9 6.30156 6.7 6.30156 6.5 6.30156C6.3 6.30156 6 6.50156 5.9 6.60156C5.3 7.20156 5 7.90156 5 8.70156C5.1 9.60156 5.4 10.5016 6 11.3016C7.1 12.9016 8.5 14.2016 10.2 15.0016C10.7 15.2016 11.1 15.4016 11.6 15.5016C12.1 15.7016 12.6 15.7016 13.2 15.6016C13.9 15.5016 14.5 15.0016 14.9 14.4016C15.1 14.0016 15.1 13.6016 15 13.2016C15 13.2016 14.8 13.1016 14.6 13.0016ZM17.1 3.90156C13.2 0.0015626 6.9 0.0015626 3 3.90156C-0.2 7.10156 -0.8 12.0016 1.4 15.9016L0 21.0016L5.3 19.6016C6.8 20.4016 8.4 20.8016 10 20.8016C15.5 20.8016 19.9 16.4016 19.9 10.9016C20 8.30156 18.9 5.80156 17.1 3.90156ZM14.4 17.9016C13.1 18.7016 11.6 19.2016 10 19.2016C8.5 19.2016 7.1 18.8016 5.8 18.1016L5.5 17.9016L2.4 18.7016L3.2 15.7016L3 15.4016C0.6 11.4016 1.8 6.40156 5.7 3.90156C9.6 1.40156 14.6 2.70156 17 6.50156C19.4 10.4016 18.3 15.5016 14.4 17.9016Z" fill="white"/>
</svg>
